<?xml version="1.0" encoding="utf-8"?>
<!-- Generator: Adobe Illustrator 24.3.0, SVG Export Plug-In . SVG Version: 6.00 Build 0)  -->
<svg version="1.0" id="katman_1" xmlns="http://www.w3.org/2000/svg" xmlns:xlink="http://www.w3.org/1999/xlink" x="0px" y="0px"
	 viewBox="0 0 841.89 595.28" style="enable-background:new 0 0 841.89 595.28;" xml:space="preserve">
<path id="FM23_STAMP-Light" d="M560.48,383.49l51.99-79.43c8.7-11.36,13.46-25.24,13.55-39.55V248c0-20.91-12-32.91-33.55-32.91
	c-20.72,0-33.31,11.64-33.31,31.99v19.59h3.36v-19.59c0-10.72,4.48-28.67,29.95-28.67c19.72,0,30.2,10.52,30.2,29.59v16.47
	c-0.1,13.55-4.62,26.69-12.88,37.43l-53.51,82.14v2.6h72.58l1.08-3.32L560.48,383.49z M710.24,284.4h-0.96l27.63-63.98h-53.74
	l-1.08,3.36h49.76l-27.54,63.98h6.04c17.91-0.07,32.49,14.4,32.55,32.31c0,0.04,0,0.08,0,0.12v34.47
	c0.62,17.99-13.46,33.07-31.45,33.69c-17.99,0.62-33.07-13.46-33.69-31.45c-0.03-0.75-0.03-1.49,0-2.24v-7.69h-3.36v7.69
	c0,19.88,16.11,35.99,35.99,35.99s35.99-16.11,35.99-35.99v-34.4c-0.07-19.88-16.24-35.94-36.11-35.87
	C710.26,284.39,710.25,284.39,710.24,284.4L710.24,284.4z M58.12,178.7v249.1h713.14l12.52-38.55V178.7H58.12z M491.09,203.29h13.52
	v3.4h-4.68v8.68h-4.32v-8.68H491L491.09,203.29z M220,348.82h-67.02v54.45H84.04V203.34h162.51l-10.56,58.83h-83.02v32.91h76.9
	L220,348.82z M449.46,403.27l-12.91-112.59l-37.59,112.74h-46.76L314.9,288.88l-15.67,114.53h-69.31l36.39-199.95h79.99l29.03,93.97
	l27.99-93.97h79.7l36.35,199.95L449.46,403.27z M524,215.32h-4v-6.54c0.01-0.84,0.08-1.69,0.24-2.52l0,0
	c-0.22,0.8-0.49,1.59-0.8,2.36l-2.6,6.72h-4l-2.44-6.68c-0.31-0.78-0.57-1.58-0.76-2.4l0,0c0.08,0.84,0.08,1.68,0,2.52v6.56h-3.72
	v-11.99h6.36l2.16,6.08c0.19,0.49,0.33,1,0.44,1.52l0,0c0.09-0.53,0.24-1.06,0.44-1.56l2.04-6.04h6.56L524,215.32z M636.34,403.27
	h-94.16v-27.1l50.51-77.3c8.63-11.41,13.09-25.42,12.64-39.71v-7.99c0-10.43-4.36-14.84-12.96-14.84c-8.6,0-12.96,4.4-12.96,14.84
	v27.99h-37.23v-27.23c0-32.87,14.64-50.55,50.19-50.55c33.67,0,50.03,17.67,50.03,50.55v6.21c0,19.56-3.2,34.03-18.88,58.29
	l-32.71,50.55h57.46L636.34,403.27z M762.59,354.65c0,28.93-23.45,52.39-52.39,52.39s-52.39-23.45-52.39-52.39l0,0v-18.67h36.35
	v18.68c0.43,8.83,7.95,15.64,16.78,15.21c8.23-0.4,14.81-6.98,15.21-15.21v-34.4c0-8.84-7.17-16.01-16.01-16.01h-31.11l27.63-63.98
	h-42.78l11.12-36.39h87.02l-29.88,69.1c18.51,8.42,30.42,26.85,30.47,47.19L762.59,354.65z"/>
</svg>
