<svg xmlns="http://www.w3.org/2000/svg" viewBox="22 0 160 160" aria-hidden="true" class="rh-logo" version="1.1" id="svg156" width="932" height="159">
  <g id="Hat_icon" data-name="Hat icon">
    <path id="Red_hat" data-name="Red hat" d="M127 90.24c12.5 0 30.61-2.58 30.61-17.46a14 14 0 00-.31-3.42L149.82 37c-1.72-7.12-3.23-10.35-15.74-16.6-9.7-5-30.82-13.15-37.07-13.15-5.83 0-7.55 7.54-14.45 7.54-6.68 0-11.64-5.6-17.89-5.6-6 0-9.92 4.1-12.93 12.5 0 0-8.41 23.72-9.49 27.16a6.43 6.43 0 00-.25 1.94c0 9.21 36.32 39.45 85 39.45zm32.55-11.42c1.72 8.19 1.72 9.05 1.72 10.13 0 14-15.73 21.77-36.43 21.77-46.77 0-87.73-27.37-87.73-45.48a18.32 18.32 0 011.51-7.33C21.77 58.77 0 61.79 0 81c0 31.48 74.59 70.28 133.65 70.28 45.27 0 56.7-20.48 56.7-36.65 0-12.75-11-27.19-30.83-35.81z" fill="#e00"/>
    <path class="rh-logo-band" id="Black_band" data-name="Black band" d="M159.52 78.82c1.72 8.19 1.72 9.05 1.72 10.13 0 14-15.73 21.77-36.43 21.77-46.77 0-87.73-27.37-87.73-45.48a18.32 18.32 0 011.51-7.33l3.66-9.06a6.43 6.43 0 00-.25 1.94c0 9.21 36.32 39.45 85 39.45 12.5 0 30.61-2.58 30.61-17.46a14 14 0 00-.31-3.42z"/>
  </g>
</svg>
